<?xml version="1.0" encoding="utf-8"?>
<!-- Generator: Adobe Illustrator 16.0.0, SVG Export Plug-In . SVG Version: 6.00 Build 0)  -->
<!DOCTYPE svg PUBLIC "-//W3C//DTD SVG 1.1//EN" "http://www.w3.org/Graphics/SVG/1.1/DTD/svg11.dtd">
<svg version="1.1" id="Capa_1" xmlns="http://www.w3.org/2000/svg" xmlns:xlink="http://www.w3.org/1999/xlink" x="0px" y="0px"
	 width="203px" height="55px" viewBox="0 0 203 55" enable-background="new 0 0 203 55" xml:space="preserve">
<g>
	<path fill="#11A1DC" d="M11.292,3.535L11.183,3.43c-0.176-0.153-0.396-0.254-0.647-0.254c-0.245,0-0.459,0.097-0.636,0.241
		L9.772,3.547l-7.518,7.515l-0.128,0.131c-0.143,0.177-0.245,0.394-0.245,0.637c0,0.231,0.091,0.441,0.229,0.607l0.167,0.174
		l8.261,8.262l9.047-9.047L11.292,3.535z"/>
	<path opacity="0.6" fill="#11A1DC" enable-background="new    " d="M10.539,20.872L2.3,29.11l-0.2,0.202
		c-0.129,0.168-0.217,0.365-0.217,0.594c0,0.256,0.104,0.489,0.265,0.662l0.081,0.081l7.496,7.504l0.245,0.238
		c0.164,0.117,0.352,0.199,0.567,0.199c0.22,0,0.416-0.086,0.581-0.208l0.223-0.219l8.246-8.247L10.539,20.872z"/>
	<path fill="#213B73" d="M27.988,20.233l-0.1-0.102l-8.301-8.305l-9.047,9.046l9.047,9.045l8.228-8.234l0.225-0.22
		c0.121-0.165,0.204-0.359,0.204-0.58C28.243,20.633,28.143,20.409,27.988,20.233z"/>
	<g>
		<g>
			<path fill="#213B73" d="M83.365,20.421C83.336,12.29,77.765,7.919,71.149,7.947c-7.67,0.027-13.157,5.752-13.126,13.176
				c0.026,7.673,5.551,13.105,13.228,13.078c4.839-0.019,8.521-1.944,10.843-5.009v-0.011c0.151-0.173,0.252-0.388,0.252-0.637
				c0-0.295-0.14-0.551-0.343-0.728L82,27.774l-2.812-1.989l-0.025,0.001c-0.131-0.065-0.275-0.112-0.432-0.112
				c-0.289,0-0.542,0.131-0.723,0.334h-0.004c-1.372,1.846-3.586,3.131-6.718,3.143c-4.195,0.015-7.536-2.697-7.802-6.836
				l18.801-0.075l0.022-0.018c0.021,0,0.033,0.007,0.055,0.007c0.503,0,0.904-0.383,0.954-0.872l0.042-0.449
				C83.365,20.591,83.365,20.724,83.365,20.421z M63.717,18.273c0.743-3.74,4.015-5.621,7.244-5.632
				c3.235-0.013,6.17,1.948,6.791,5.579L63.717,18.273z"/>
		</g>
		<path fill="#213B73" d="M48.278,18.693l-2.577-0.75c-2.479-0.694-3.038-1.754-3.042-2.963c-0.007-1.518,1.708-2.381,3.372-2.386
			c1.714-0.008,3.103,0.705,4.169,1.826l0.042,0.004c0.18,0.21,0.437,0.349,0.735,0.349c0.252,0,0.477-0.106,0.647-0.263
			l0.035,0.004l2.11-1.621l0.004-0.03c0.298-0.165,0.507-0.474,0.507-0.838c0-0.256-0.104-0.483-0.259-0.657l0.003-0.033
			c-1.816-2.212-4.542-3.404-7.91-3.391c-5.05,0.019-8.977,2.759-9.012,7.252c-0.034,3.735,2.247,6.506,6.646,7.702l2.221,0.597
			c3.036,0.896,3.897,1.752,3.904,3.217c0.003,1.767-1.657,2.683-3.627,2.688c-2.142,0.01-4.206-0.869-5.431-2.44
			c-0.027-0.071-0.074-0.13-0.12-0.191c-0.046-0.067-0.089-0.126-0.151-0.176c-0.171-0.15-0.389-0.248-0.633-0.248
			c-0.206,0-0.389,0.078-0.547,0.19l-0.012-0.004l-2.553,1.844l-0.002,0.025c-0.226,0.181-0.377,0.444-0.377,0.754
			c0,0.131,0.027,0.261,0.078,0.377c0.004,0.01,0.007,0.014,0.011,0.019c0.04,0.065,0.077,0.132,0.121,0.195
			c1.982,2.986,5.527,4.467,9.636,4.452c5.199-0.019,9.128-3.015,9.109-7.858C55.361,22.199,52.728,19.988,48.278,18.693z"/>
	</g>
	<g>
		<path fill="#213B73" d="M172.663,32.522l-0.089-22.931l-0.023-0.023c0.002-0.019,0.011-0.034,0.011-0.059
			c0-0.596-0.484-1.079-1.082-1.079l-0.007-0.009l-3.256,0.014l-0.046,0.042c-0.016,0-0.028-0.006-0.041-0.006
			c-0.572,0-1.029,0.449-1.068,1.011l-0.042,0.034l0.007,2.015c-1.847-2.173-4.591-3.565-7.664-3.565
			c-0.068,0-0.127,0.011-0.188,0.011c-0.08,0-0.159-0.011-0.24-0.011c-6.916,0.023-12.146,5.951-12.12,13.171
			c0.026,7.222,5.305,13.109,12.22,13.086c0.065,0,0.126-0.014,0.19-0.014c0.046,0,0.09,0.009,0.138,0.009
			c3.118,0,5.891-1.422,7.738-3.645v0.203c-0.005,0.059-0.018,0.117-0.018,0.178c0,0.072,0.018,0.133,0.021,0.2
			c0.102,1.404,1.264,2.519,2.692,2.519c0.025,0,1.906-0.056,1.906-0.056c0.53-0.07,0.943-0.508,0.943-1.055
			c0-0.008-0.005-0.013-0.005-0.016L172.663,32.522z M160.022,29.168c-4.491,0.014-7.536-3.508-7.551-8.052
			c-0.022-4.547,2.999-8.092,7.495-8.107c4.492-0.021,7.531,3.507,7.554,8.049C167.535,25.601,164.521,29.146,160.022,29.168z"/>
	</g>
	<path fill="#213B73" d="M200.922,32.499l-0.056-14.08c-0.023-6.411-3.825-10.54-9.684-10.515c-3.279,0.011-6.154,1.436-7.661,3.967
		l-0.015-0.876l-0.032-0.029c-0.098-1.38-1.216-2.477-2.614-2.52c-0.022,0-0.041-0.003-0.065-0.003c-0.004,0-0.01-0.004-0.017-0.004
		c-0.025,0-0.056,0.009-0.085,0.013l-1.625,0.003c-0.022,0-0.046-0.017-0.072-0.017c-0.028,0-0.05,0.017-0.08,0.017h-0.018
		l-0.003,0.004c-0.524,0.055-0.94,0.48-0.94,1.02c0,0.023,0.013,0.042,0.018,0.067l-0.015,0.01l0.09,23.064l0.021,0.019v0.004
		c0,0.555,0.425,0.997,0.966,1.06c0.034,0.004,0.065,0.02,0.102,0.02c0.005,0,0.007,0.006,0.014,0.006
		c0.041,0,0.077-0.021,0.118-0.025l3.085-0.013c0.06,0.008,0.114,0.038,0.182,0.038c0.003,0,0.005-0.006,0.013-0.006
		c0.061,0,0.116-0.024,0.168-0.032c0.477-0.09,0.843-0.472,0.882-0.962l0.008-0.008v-0.021c0-0.022,0.011-0.034,0.011-0.057
		s-0.011-0.038-0.011-0.059l-0.045-11.319c-0.021-5.404,2.795-8.293,6.486-8.306c3.229-0.017,5.256,2.401,5.27,6.389l0.051,13.318
		l0.042,0.04c0.064,0.487,0.437,0.868,0.923,0.931c0.047,0.003,0.09,0.026,0.138,0.026c0.007,0,0.014-0.008,0.027-0.008
		c0.038,0,0.072-0.016,0.106-0.019l3.202-0.016c0.014,0.005,0.031,0.014,0.043,0.014c0.014,0,0.031-0.009,0.041-0.009
		c0.008,0,0.008-0.005,0.009-0.005c0.55-0.022,0.989-0.457,1.02-1.009h0.006v-0.016c0-0.014,0.011-0.029,0.011-0.046
		C200.932,32.528,200.922,32.515,200.922,32.499z"/>
	<path fill="#213B73" d="M142.993,18.449c-0.027-6.464-3.425-10.638-9.13-10.619c-1.747,0.007-3.46,0.51-4.913,1.446
		c-1.342,0.817-2.478,1.926-3.321,3.247c-1.422-2.912-4.071-4.646-7.67-4.631c-2.094,0.009-3.883,0.68-5.271,1.793
		c-0.699,0.501-1.335,1.082-1.887,1.738l-0.004-0.256c0,0,0.004-0.004,0.004-0.006c0,0-0.004-0.003-0.004-0.009v-0.271l-0.027-0.03
		c-0.154-1.345-1.283-2.391-2.671-2.404c0,0-1.741-0.034-1.792-0.034c-0.61,0-1.101,0.491-1.101,1.101
		c0,0.063,0.15,23.177,0.15,23.177c0.04,0.546,0.481,0.981,1.035,0.999c0.013,0,0.021,0.007,0.034,0.007l0.001-0.005
		c0.014,0,0.02-0.002,0.028-0.002l3.356-0.014l0.019-0.017c0.562-0.017,1.008-0.452,1.044-1.006l0.007-0.009v-0.023
		c0-0.016,0.009-0.028,0.009-0.039c0-0.015-0.009-0.027-0.009-0.044l-0.042-11.288c-0.023-5.302,2.44-8.291,6.026-8.307
		c3.031-0.011,4.504,2.561,4.519,6.5l0.048,12.875c-0.007,0.046-0.025,0.084-0.025,0.131c0,0.051,0.019,0.092,0.025,0.14v0.056
		l0.015,0.013c0.049,0.259,0.177,0.481,0.372,0.651c0.186,0.186,0.431,0.309,0.716,0.317c0.006,0,0.013,0.004,0.024,0.004
		c0,0,0,0.005,0.005,0.005c0.013,0,0.019-0.009,0.031-0.009l3.309-0.012l0.017-0.021c0.575-0.022,1.034-0.483,1.04-1.064l0.03-0.021
		l-0.046-11.32c-0.021-5.302,2.391-8.291,5.978-8.307c3.031-0.011,4.504,2.561,4.519,6.501l0.054,13.147l0.013,0.017
		c0.031,0.555,0.474,0.999,1.032,1.017h0.005h0.004c0.012,0,0.019,0.009,0.029,0.009c0.014,0,0.021-0.009,0.032-0.009l3.351-0.012
		l0.016-0.014c0.573-0.01,1.037-0.467,1.058-1.042l0.015-0.012L142.993,18.449z"/>
	<path fill="#213B73" d="M101.953,12.771c0-0.016-0.009-0.029-0.009-0.05l-0.014-3.456V9.221c0-0.002,0.001-0.002,0.001-0.006
		c0,0-0.001-0.002-0.001-0.007c-0.004-0.459-0.33-0.827-0.761-0.927l-0.021-0.032c-0.471-0.055-0.932-0.086-1.391-0.086
		c-1.321,0.007-2.625,0.419-3.747,1.134V9.292c-0.012,0.009-0.023,0.018-0.033,0.024c-0.138,0.085-0.27,0.171-0.398,0.268
		c-0.943,0.608-1.778,1.361-2.474,2.241v-0.632c0-0.008,0-0.014,0-0.023s0-0.014,0-0.023v-0.052l-0.006-0.009
		c-0.042-1.458-1.236-2.628-2.709-2.628l-0.004-0.003L88.53,8.458c-0.008,0-0.012-0.003-0.018-0.003
		c-0.006,0-0.015,0.003-0.024,0.003h-0.015l-0.004,0.004c-0.503,0.022-0.899,0.419-0.929,0.918c0,0.004,0,0.01,0,0.01
		c0,0.015-0.006,0.025-0.006,0.042c0,0.019,0.006,0.034,0.006,0.055l0.09,23.193c0,0.007-0.001,0.021-0.001,0.028
		c0,0.01,0.001,0.018,0.001,0.031v0.092l0.024,0.019c0.069,0.457,0.437,0.804,0.904,0.826l0.027,0.027l3.585-0.011l0.011-0.01
		c0.005,0,0.014,0.005,0.023,0.005c0.538,0,0.978-0.441,0.978-0.979c0,0-0.005-0.004-0.005-0.008l0.009-0.005l-0.042-11.328
		c-0.021-5.049,2.845-7.739,6.027-7.75c0.614,0,1.161,0.072,1.704,0.182l0.024-0.025c0.03,0,0.056,0.017,0.087,0.017
		c0.509,0,0.911-0.392,0.957-0.889c0.004-0.03,0.022-0.057,0.022-0.089C101.966,12.797,101.957,12.789,101.953,12.771z"/>
	<g>
		<path fill="#213B73" d="M76.918,51.396c0.068,0.158,0.229,0.267,0.409,0.27l0.023,0.017h0.247l0.142-0.021
			c0.233-0.011,0.424-0.206,0.424-0.451c0-0.04-0.008-0.087-0.025-0.128l0.004-0.016l-3.025-6.981L75.04,43.99
			c-0.068-0.147-0.214-0.255-0.39-0.263l-0.135-0.012h-0.28l-0.151,0.009c-0.198,0-0.358,0.129-0.419,0.306l-0.019,0.006
			l-3.058,7.001l0.006,0.01c-0.021,0.054-0.034,0.108-0.034,0.163c0,0.258,0.204,0.46,0.451,0.46l0.002-0.005l0.017,0.017h0.321
			l0.025-0.017c0.174-0.008,0.322-0.107,0.394-0.262l0.017-0.005l0.774-1.806h3.566l0.701,1.617L76.918,51.396z M73.07,48.425
			l1.281-2.95l1.274,2.95H73.07z"/>
		<path fill="#213B73" d="M93.129,49.594l0.7,1.617l0.087,0.185c0.069,0.158,0.226,0.267,0.408,0.27l0.025,0.017h0.247l0.14-0.021
			c0.235-0.011,0.426-0.206,0.426-0.451c0-0.04-0.013-0.087-0.025-0.128l0.003-0.016l-3.026-6.981l-0.077-0.095
			c-0.071-0.147-0.217-0.255-0.391-0.263l-0.133-0.012H91.23l-0.152,0.009c-0.191,0-0.357,0.129-0.42,0.306l-0.016,0.006
			l-3.057,7.001l0.006,0.01c-0.019,0.054-0.037,0.108-0.037,0.163c0,0.258,0.208,0.46,0.458,0.46v-0.005l0.01,0.017h0.324
			l0.025-0.017c0.178-0.008,0.326-0.107,0.394-0.262l0.02-0.005l0.777-1.806L93.129,49.594L93.129,49.594z M91.346,45.475
			l1.277,2.95h-2.556L91.346,45.475z"/>
		<path fill="#213B73" d="M63.902,43.712h-1.819l-0.161,0.016c0,0-0.004,0-0.006,0c-0.248,0-0.451,0.202-0.451,0.45
			c0,0.01-0.014,6.138-0.014,6.138l0.021,0.929c0.011,0.233,0.202,0.429,0.443,0.429l0.006,0.006h1.98
			c2.367,0,4.172-1.729,4.172-3.983C68.074,45.439,66.268,43.712,63.902,43.712z M63.902,50.455h-1.134v-5.524h1.134
			c1.702,0,2.834,1.207,2.834,2.765C66.735,49.252,65.603,50.455,63.902,50.455z"/>
		<path fill="#213B73" d="M80.407,44.945l0.351,0.021h1.452v5.859l0.021,0.356c0.013,0.261,0.222,0.468,0.482,0.476l0.021,0.021h0.3
			l0.03-0.032c0.224-0.023,0.394-0.19,0.427-0.41l0.034-0.364v-5.905h1.473l0.35-0.027c0.243-0.009,0.434-0.191,0.464-0.432
			l0.014-0.287c-0.004-0.271-0.222-0.493-0.492-0.496l-0.307-0.013h-4.38l-0.256,0.013c-0.268,0.011-0.473,0.225-0.478,0.491
			l-0.013,0.007v0.236l0.013,0.008C79.926,44.737,80.141,44.945,80.407,44.945z"/>
		<path fill="#213B73" d="M108.866,50.754l-2.198-2.651c1.147-0.271,1.804-1.001,1.804-2.126c0-1.312-0.929-2.261-2.408-2.261
			h-2.429c-0.01-0.009-0.012-0.012-0.021-0.012l0,0c-0.01,0-0.017,0.003-0.025,0.012c-0.217,0.005-0.395,0.189-0.395,0.409
			c0,0.007,0,0.007,0,0.01l-0.004,0.007l0.014,7.157c0.025,0.203,0.192,0.368,0.41,0.368c0.003,0,0.474,0.013,0.474,0.013
			l0.004-0.004c0.221-0.024,0.387-0.202,0.396-0.419l0.017-0.013v-3.067h0.595l2.761,3.314l0.068,0.081
			c0.072,0.065,0.168,0.107,0.271,0.107h0.041c0,0,0.555,0.003,0.571,0c0.004,0,0.004,0,0.01,0c0.202-0.028,0.358-0.198,0.358-0.407
			c0-0.082-0.029-0.152-0.067-0.217L108.866,50.754z M104.504,47.031v-2.11h1.402c0.776,0,1.257,0.378,1.257,1.056
			c0,0.687-0.48,1.056-1.257,1.056L104.504,47.031L104.504,47.031z"/>
		<path fill="#213B73" d="M117.2,44.169c0-0.239-0.182-0.428-0.413-0.448l-0.17-0.005h-3.459l-0.347,0.009
			c-0.215,0.029-0.386,0.209-0.39,0.428l-0.015,0.019v6.85l0.029,0.257c0.032,0.213,0.203,0.378,0.424,0.385l0.019,0.017h3.853
			l0.009-0.014c0.003,0,0.003,0.005,0.008,0.005c0.25,0,0.454-0.205,0.454-0.453c0-0.007-0.006-0.01-0.006-0.015l0.007-0.006v-0.32
			l-0.007-0.011c-0.006-0.229-0.178-0.405-0.399-0.431l-0.206-0.015h-2.869v-2.155h1.962l0.412-0.025
			c0.232-0.016,0.42-0.207,0.42-0.444c0-0.004,0-0.004,0-0.004l0.013-0.018v-0.314l-0.014-0.016
			c-0.011-0.228-0.197-0.411-0.429-0.425l-0.222-0.008h-2.142v-2.048h2.784l0.28-0.014c0.233-0.026,0.409-0.212,0.409-0.441
			l0.007-0.004v-0.32l-0.01-0.009C117.193,44.171,117.2,44.169,117.2,44.169z"/>
		<path fill="#213B73" d="M166.404,50.754l-2.206-2.651c1.149-0.271,1.811-1.001,1.811-2.126c0-1.312-0.926-2.261-2.409-2.261
			h-2.429c-0.007-0.009-0.014-0.012-0.022-0.012h-0.003c-0.009,0-0.014,0.003-0.022,0.012c-0.219,0.005-0.396,0.189-0.396,0.409
			c0,0.007,0.003,0.007,0.003,0.01l-0.007,0.007l0.014,7.157c0.027,0.203,0.191,0.368,0.411,0.368c0.006,0,0.473,0.013,0.473,0.013
			l0.006-0.004c0.217-0.024,0.387-0.202,0.399-0.419l0.012-0.013v-3.067h0.596l2.761,3.314l0.068,0.081
			c0.073,0.065,0.166,0.107,0.271,0.107h0.042c0,0,0.551,0.003,0.567,0c0.004,0,0.004,0,0.01,0c0.207-0.028,0.359-0.198,0.359-0.407
			c0-0.082-0.025-0.152-0.069-0.217L166.404,50.754z M162.038,47.031v-2.11h1.4c0.775,0,1.258,0.378,1.258,1.056
			c0,0.687-0.482,1.056-1.258,1.056L162.038,47.031L162.038,47.031z"/>
		<path fill="#213B73" d="M157.145,44.169c0-0.239-0.184-0.428-0.41-0.448l-0.175-0.005h-3.458l-0.341,0.009
			c-0.217,0.029-0.389,0.209-0.394,0.428l-0.014,0.019v6.85l0.026,0.257c0.031,0.213,0.205,0.378,0.425,0.385l0.02,0.017h3.85
			l0.013-0.014l0.003,0.005c0.249,0,0.455-0.205,0.455-0.455c0-0.005-0.005-0.008-0.005-0.014l0.009-0.005v-0.32l-0.009-0.011
			c-0.008-0.229-0.181-0.405-0.396-0.431l-0.212-0.015h-2.867v-2.155h1.965l0.41-0.025c0.233-0.016,0.418-0.207,0.418-0.444
			c0-0.004,0-0.004,0-0.004l0.015-0.018v-0.314l-0.017-0.016c-0.009-0.228-0.195-0.411-0.423-0.425l-0.226-0.008h-2.143v-2.048
			h2.785l0.28-0.014c0.229-0.026,0.41-0.212,0.41-0.441l0.008-0.004v-0.32l-0.012-0.009
			C157.138,44.171,157.145,44.169,157.145,44.169z"/>
		<path fill="#213B73" d="M124.133,44.846c1.018,0,1.902,0.523,2.309,1.299l0.025,0.007c0.074,0.115,0.19,0.188,0.334,0.2
			l0.136,0.029h0.301l0.127-0.017c0.227-0.022,0.407-0.206,0.407-0.446c0-0.065-0.015-0.123-0.04-0.186l0,0
			c-0.601-1.239-1.954-2.16-3.599-2.16c-2.373,0-4.155,1.801-4.155,4.123c0,2.324,1.782,4.113,4.155,4.113
			c1.624,0,2.969-0.893,3.574-2.115c0.004-0.006,0.064-0.157,0.064-0.213c0-0.249-0.19-0.441-0.432-0.45l-0.209-0.019h-0.109
			l-0.194,0.017c-0.17,0.002-0.315,0.11-0.386,0.257l-0.025,0.017c-0.414,0.745-1.29,1.246-2.283,1.246
			c-1.662,0-2.827-1.247-2.827-2.853S122.471,44.846,124.133,44.846z"/>
		<path fill="#213B73" d="M134.979,43.585c-2.286,0-4.114,1.817-4.114,4.117s1.828,4.123,4.114,4.123
			c2.278,0,4.126-1.823,4.126-4.123S137.258,43.585,134.979,43.585z M134.979,50.555c-1.583,0-2.789-1.267-2.789-2.853
			c0-1.582,1.206-2.852,2.789-2.852c1.571,0,2.785,1.27,2.785,2.852C137.767,49.288,136.552,50.555,134.979,50.555z"/>
		<path fill="#213B73" d="M148.666,43.712l-0.163-0.015l-0.273,0.007l-0.009,0.009c-0.207,0.038-0.381,0.218-0.444,0.387
			l-2.306,5.449l-2.286-5.346l-0.071-0.154c-0.092-0.217-0.251-0.33-0.469-0.345l-0.104-0.008l-0.26,0.008
			c-0.291,0.014-0.514,0.244-0.514,0.531c0,0.072,0.018,0.135,0.04,0.201l2.842,6.687l0.173,0.349
			c0.086,0.128,0.215,0.21,0.397,0.255l0.454,0.005h0.014c0.164-0.03,0.312-0.118,0.419-0.277l0.211-0.442l2.707-6.368l0.083-0.206
			c0.018-0.049,0.038-0.118,0.038-0.202C149.143,43.969,148.939,43.739,148.666,43.712z"/>
		<path fill="#213B73" d="M175.114,43.682l-0.009-0.007h-0.471l-0.015,0.007c-0.002,0-0.006-0.006-0.007-0.006
			c-0.177,0-0.32,0.101-0.393,0.242l-0.364,0.534l-1.651,2.541l-1.723-2.641c-0.008-0.023-0.299-0.493-0.312-0.505
			c-0.081-0.095-0.195-0.157-0.327-0.167l-0.017-0.008h-0.461l-0.004,0.008c-0.013,0-0.015-0.006-0.024-0.006
			c-0.247,0-0.446,0.201-0.446,0.456c0,0.103,0.038,0.191,0.099,0.268l0,0l2.561,3.904l0.012,2.216l0.007,0.797
			c0.033,0.2,0.197,0.354,0.404,0.366l0.014,0.013h0.452l0.019-0.016c0.198-0.021,0.355-0.177,0.383-0.371l0.038-0.906l-0.007-2.086
			l2.129-3.231c0.017-0.017,0.498-0.754,0.517-0.788c0.016-0.057,0.034-0.11,0.034-0.164
			C175.55,43.886,175.354,43.695,175.114,43.682z"/>
	</g>
</g>
</svg>
